<?xml version="1.0" encoding="utf-8"?>
<!-- Generator: Adobe Illustrator 19.0.0, SVG Export Plug-In . SVG Version: 6.00 Build 0)  -->
<svg version="1.1" id="Layer_1" xmlns="http://www.w3.org/2000/svg" xmlns:xlink="http://www.w3.org/1999/xlink" x="0px" y="0px"
	 viewBox="0 0 350 560" style="enable-background:new 0 0 350 560;" xml:space="preserve">
<style type="text/css">
	.st0{fill:none;stroke:#0A0A0A;stroke-width:7;stroke-miterlimit:10;}
	.st1{fill:none;stroke:#000000;stroke-width:6;stroke-miterlimit:10;}
	.st2{fill:#34A7E8;}
	.st3{fill:#FF9933;}
	.st4{fill:#FF9933;stroke:#666666;stroke-width:0.8472;stroke-miterlimit:10;}
	.st5{fill:#00FFFF;stroke:#666666;stroke-miterlimit:10;}
</style>
<line id="XMLID_3_" class="st0" x1="99" y1="453.5" x2="262" y2="453.5"/>
<line id="XMLID_10_" class="st1" x1="199" y1="65" x2="199" y2="13"/>
<line id="XMLID_12_" class="st1" x1="146" y1="65" x2="146" y2="13"/>
<line id="XMLID_9_" class="st0" x1="91" y1="70.5" x2="253" y2="70.5"/>
<path id="XMLID_6_" class="st2" d="M220,328.2h11.8c10.7,0,19.5-8.7,19.5-19.5V125.3c0-8-4.9-15-12.2-18.1
	c-15.3-6.5-26.2-22.4-26.2-41.1c0-0.1,0-0.1,0-0.2c0-10.9-8.6-19.8-19.4-19.8h-42.9c-10.9,0-19.5,8.9-19.4,19.8c0,0.1,0,0.1,0,0.2
	c0,16.8-8.8,31.4-21.7,38.9c-6,3.5-9.6,10-9.6,17v186.8c0,10.7,8.7,19.5,19.5,19.5h10.9c10.3,0,18.9,8.1,19.4,18.4l7.6,145.4
	c0.7,13.6-12.4,23.7-25.3,19.6l-21-6.7c-12.5-4-25.3,5.4-25.3,18.5v14.7c0,10.7,8.7,19.5,19.5,19.5h136.7c10.7,0,19.5-8.7,19.5-19.5
	v-17c0-13.4-13.2-22.7-25.8-18.4l-15.7,5.4c-13,4.5-26.4-5.6-25.8-19.3l6.7-142.2C201,336.4,209.6,328.2,220,328.2z"/>
<rect id="XMLID_8_" x="122.9" class="st2" width="102.1" height="24.1"/>
<polygon id="XMLID_11_" class="st3" points="99.8,239.3 131.6,149.1 161.3,117 183.2,117 219.3,148 251,239.3 251,117.5 217.4,46 
	131.6,46 98.7,117.4 "/>
<path id="XMLID_1_" d="M87.7,117.5H74.6c-9.7,0-17.6-7.9-17.6-17.6V53.8c0-9.7,7.9-17.6,17.6-17.6h13.2c9.7,0,17.6,7.9,17.6,17.6
	v46.1C105.3,109.5,97.4,117.5,87.7,117.5z"/>
<path id="XMLID_4_" d="M275.4,117.5h-13.2c-9.7,0-17.6-7.9-17.6-17.6V53.8c0-9.7,7.9-17.6,17.6-17.6h13.2c9.7,0,17.6,7.9,17.6,17.6
	v46.1C293,109.5,285.1,117.5,275.4,117.5z"/>
<path id="XMLID_5_" d="M249.1,490.7h-13.2c-9.7,0-17.6-7.9-17.6-17.6V427c0-9.7,7.9-17.6,17.6-17.6h13.2c9.7,0,17.6,7.9,17.6,17.6
	v46.1C266.7,482.8,258.8,490.7,249.1,490.7z"/>
<path id="XMLID_7_" d="M118.5,490.7h-13.2c-9.7,0-17.6-7.9-17.6-17.6V427c0-9.7,7.9-17.6,17.6-17.6h13.2c9.7,0,17.6,7.9,17.6,17.6
	v46.1C136,482.8,128.1,490.7,118.5,490.7z"/>
<path id="XMLID_2_" class="st3" d="M165.1,238.2h14.3c11.2,0,20.3-9.1,20.3-20.3v-14.3c0-11.2-9.1-20.3-20.3-20.3h-14.3
	c-11.2,0-20.3,9.1-20.3,20.3v14.3C144.8,229.1,153.9,238.2,165.1,238.2z"/>
<polygon id="XMLID_13_" class="st3" points="71.3,538 274.3,538 251.8,558 94.1,558 "/>
<rect id="XMLID_15_" x="153.6" y="243" class="st4" width="45.7" height="78"/>
<g id="XMLID_16_">
	<path id="XMLID_17_" class="st5" d="M195,270c1.3,0.5,2,1.1,2,2v0.2l0,0.1c-0.1,1.2-1.4,2.4-3.9,3.8c-2.2,1.2-3.8,1.8-5,1.9
		c-0.6,0-1.5,0.1-2.5,0.1c-0.8,0-1.6,0-2.6,0c-0.6,0-1.1,0-1.7,0c-3.8,0-6.6,0.3-8.5,1c-2.3,0.8-3.8,3.2-4.5,7.3
		c-0.1,0.8-0.2,1.5-0.3,2.3c-0.1,1.1-0.2,2.2-0.2,3.4c0,1.5,0.1,3.1,0.3,4.7c0.1,0.5,0.3,1.4,0.6,2.9c0.8,2.9,1.2,5.3,1.2,7.1
		c0,0.4,0,0.7-0.1,1c-0.1,1-0.3,1.8-0.8,2.4c-0.7,0.9-1.8,1.3-3.2,1.3h-0.3l-0.2,0c-2.9-0.3-4.8-2.6-5.5-7c-0.2-1.4-0.3-3.1-0.3-5.1
		c0-1.5,0.1-3.2,0.2-5.1l0-0.7c0.1-0.8,0.2-2.2,0.3-4.1c0.2-2.7,0.4-4.8,0.4-6.3v0c0-0.4-0.6-0.9-1.7-1.4c-1.6-0.7-2.5-1.5-2.5-2.6
		v-0.2l0-0.2c0.1-0.9,0.9-1.9,2.2-3.2c0.9-0.8,1.4-1.5,1.6-1.9c0.5-0.9,0.8-2.3,1-4.2c0.1-0.6,0.1-1.3,0.1-2c0-1.1,0.1-2,0.2-2.8
		c0-0.5,0.1-0.9,0.2-1.3c-0.3,0-0.7,0-1.1-0.1c-2.2-0.2-3.7-0.9-4.3-2.2c-0.2-0.4-0.4-0.9-0.4-1.4c0-0.1,0-0.2,0-0.3
		c0.1-0.7,0.4-1.5,0.8-2.4c0.9-1.6,3-2.9,6.2-4c1.8-0.6,3.1-1.1,3.8-1.7c1.8-1.3,3.3-1.9,4.5-1.9c0.1,0,0.2,0,0.3,0
		c1.2,0.1,2.6,0.9,4.2,2.3c0.6,0.5,1.4,0.8,2.5,0.9c0.2,0,0.4,0,0.6,0c1.5,0,3.9-0.4,7.1-1.3c3-0.7,5.1-1.1,6.4-1.1
		c0.2,0,0.4,0,0.5,0c2.2,0.2,3.4,1,3.8,2.4c0.1,0.2,0.1,0.5,0.1,0.7c0,0.1,0,0.2,0,0.3c0,0.5-0.2,1.1-0.6,1.7
		c-0.5,1-1.3,1.8-2.4,2.6c-2.6,1.7-6.5,2.6-11.8,2.6c-0.4,0-1.1-0.1-2.2-0.2c-1.1-0.1-2.1-0.2-3-0.2c-3,0-4.7,0.5-5.3,1.6
		c-0.6,1.2-1,3.1-1.3,5.8c-0.1,0.6-0.1,1.3-0.2,2c0,0.4,0,0.8-0.1,1c0.8-0.1,1.6-0.3,2.5-0.4c6.1-1.1,10.9-1.7,14.6-1.7
		c1,0,1.8,0,2.6,0.1C191.7,269.1,193.4,269.5,195,270z"/>
</g>
</svg>
