<?xml version="1.0" encoding="utf-8"?>
<!-- Generator: Adobe Illustrator 19.0.0, SVG Export Plug-In . SVG Version: 6.00 Build 0)  -->
<svg version="1.1" id="Layer_1" xmlns="http://www.w3.org/2000/svg" xmlns:xlink="http://www.w3.org/1999/xlink" x="0px" y="0px"
	 viewBox="0 0 350 560" style="enable-background:new 0 0 350 560;" xml:space="preserve">
<style type="text/css">
	.st0{fill:none;stroke:#0A0A0A;stroke-width:7;stroke-miterlimit:10;}
	.st1{fill:none;stroke:#000000;stroke-width:6;stroke-miterlimit:10;}
	.st2{fill:#DB1919;}
	.st3{fill:#DD1717;}
	.st4{fill:#918E8E;}
	.st5{fill:#918E8E;stroke:#0A0A0A;stroke-width:2;stroke-miterlimit:10;}
	.st6{font-family:'CalistoMT';}
	.st7{font-size:64px;}
</style>
<line id="XMLID_3_" class="st0" x1="262" y1="104.5" x2="99" y2="104.5"/>
<line id="XMLID_10_" class="st1" x1="199" y1="545" x2="199" y2="493"/>
<line id="XMLID_12_" class="st1" x1="146" y1="545" x2="146" y2="493"/>
<line id="XMLID_9_" class="st0" x1="253" y1="487.5" x2="91" y2="487.5"/>
<path id="XMLID_6_" class="st2" d="M200.8,211.3l-6.7-142.2c-0.6-13.7,12.8-23.8,25.8-19.3l15.7,5.4c12.6,4.3,25.8-5,25.8-18.4v-17
	c0-10.8-8.8-19.5-19.5-19.5H105.2c-10.8,0-19.5,8.8-19.5,19.5v14.7C85.7,47.6,98.5,57,111,53l21-6.7c12.9-4.1,26,6,25.3,19.6
	l-7.6,145.4c-0.5,10.3-9.1,18.4-19.4,18.4h-10.9c-10.8,0-19.5,8.8-19.5,19.5V436c0,7,3.6,13.5,9.6,17c12.9,7.5,21.7,22.1,21.7,38.9
	c0,0.1,0,0.1,0,0.2c-0.1,10.9,8.5,19.8,19.4,19.8h42.9c10.8,0,19.4-8.9,19.4-19.8c0-0.1,0-0.1,0-0.2c0-18.7,10.9-34.6,26.2-41.1
	c7.3-3.1,12.2-10.1,12.2-18.1V249.3c0-10.8-8.8-19.5-19.5-19.5H220C209.6,229.8,201,221.6,200.8,211.3z"/>
<rect id="XMLID_8_" x="122.9" y="533.9" class="st3" width="102.1" height="24.1"/>
<polygon id="XMLID_11_" class="st4" points="98.7,440.6 131.6,512 217.4,512 251,440.5 251,318.7 219.3,410 183.2,441 161.3,441 
	131.6,408.9 99.8,318.7 "/>
<path id="XMLID_1_" d="M105.4,458.1v46.1c0,9.7-7.9,17.6-17.6,17.6H74.6c-9.7,0-17.6-7.9-17.6-17.6v-46.1c0-9.7,7.9-17.6,17.6-17.6
	h13.1C97.4,440.5,105.3,448.5,105.4,458.1z"/>
<path id="XMLID_4_" d="M293,458.1v46.1c0,9.7-7.9,17.6-17.6,17.6h-13.2c-9.7,0-17.6-7.9-17.6-17.6v-46.1c0-9.7,7.9-17.6,17.6-17.6
	h13.2C285.1,440.5,293,448.5,293,458.1z"/>
<path id="XMLID_5_" d="M266.7,84.9V131c0,9.7-7.9,17.6-17.6,17.6h-13.2c-9.7,0-17.6-7.9-17.6-17.6V84.9c0-9.7,7.9-17.6,17.6-17.6
	h13.2C258.8,67.3,266.7,75.2,266.7,84.9z"/>
<path id="XMLID_7_" d="M136.1,84.9V131c0,9.7-7.9,17.6-17.6,17.6h-13.2c-9.7,0-17.6-7.9-17.6-17.6V84.9c0-9.7,7.9-17.6,17.6-17.6
	h13.2C128.1,67.3,136,75.2,136.1,84.9z"/>
<path id="XMLID_2_" class="st4" d="M144.8,340.1v14.3c0,11.2,9.1,20.3,20.3,20.3h14.3c11.2,0,20.3-9.1,20.3-20.3v-14.3
	c0-11.2-9.1-20.3-20.3-20.3h-14.3C153.9,319.8,144.8,328.9,144.8,340.1z"/>
<polygon id="XMLID_13_" class="st4" points="94.1,0 251.8,0 274.3,20 71.3,20 "/>
<rect x="147.5" y="235.9" class="st5" width="56" height="75.8"/>
<text transform="matrix(1 0 0 -1 160.5 254.25)" class="st6 st7">J</text>
</svg>
